<svg 
          width="31" 
          height="32" fill="none" 
          xmlns="http://www.w3.org/2000/svg">
          <path d="M 30.72524072430268 13.116622924804688 C 30.909617489176874 14.190504550933838 31.00154170663855 15.278551936149597 30.999979019166332 16.36851692199707 C 30.999979019166325 21.236356258392334 29.28039489835955 25.35222029685974 26.28792028809084 28.13812828063965 L 26.291872314214874 28.13812828063965 C 23.674939606270357 30.584047555923462 20.07764597384262 32 15.812282543041935 32 C 11.618604422009104 31.999999999999996 7.596688756838844 30.31434655189514 4.63131065483643 27.31386375427246 C 1.6659325528340148 24.31338095664978 2.304114763222775e-15 20.243852138519287 0 16.00052833557129 C 7.680382367610731e-16 11.757204532623291 1.6659325528340148 7.68767523765564 4.63131065483643 4.687192440032959 C 7.596688756838844 1.6867096424102783 11.618604422009104 0.0010557383066083224 15.812282543041935 0.0010557383066043258 C 19.737559773072288 -0.04545942472759634 23.528367979088568 1.4466736316680908 26.39069967019483 4.164918422698975 L 21.87629183638223 8.732768058776855 C 20.24442226305794 7.158769488334656 18.066516479891103 6.2968298234045506 15.812282543041935 6.332846164703369 C 11.687253709777481 6.332846164703368 8.182856175493045 9.14875316619873 6.933685829797202 12.940628051757812 C 6.271361084362087 14.927573323249817 6.271361084362087 17.079481959342957 6.933685829797202 19.06642723083496 L 6.9396152994946325 19.06642723083496 C 8.19471523409719 22.852302312850952 11.693183656312042 25.668209075927734 15.818212489576496 25.668209075927734 C 17.948917476659133 25.668209075927734 19.779189680979968 25.11622655391693 21.1983419726992 24.1402587890625 L 21.19241202616464 24.1402587890625 C 22.016445831855908 23.587885081768036 22.72132906590252 22.87230235338211 23.264521121085313 22.036697387695312 C 23.807713176268106 21.201092422008514 24.177951770550866 20.262791097164154 24.35289233097616 19.278419494628906 L 15.812282543041935 19.278419494628906 L 15.812282543041935 13.118622779846191 L 30.72524072430268 13.118622779846191 L 30.72524072430268 13.116622924804688 Z" fill="rgb(255,255,255)"/>
        </svg>