<svg 
          width="30.83333396911621" 
          height="30.646791458129883" fill="none" 
          xmlns="http://www.w3.org/2000/svg">
          <path d="M 15.416666984558105 0 C 6.902042173608152 0 0 6.9020420849830035 0 15.416666786601565 C 0 23.111125450320024 5.637874481105791 29.488999802304452 13.008583178138723 30.646791458129883 L 13.008583178138723 19.87208401721867 L 9.092749822870882 19.87208401721867 L 9.092749822870882 15.416666786601565 L 13.008583178138723 15.416666786601565 L 13.008583178138723 12.02037498765539 C 13.008583178138723 8.15695822624213 15.308750418583553 6.02329181350209 18.831458956877395 6.02329181350209 C 20.51804229705334 6.02329181350209 22.281707428391744 6.323917080485445 22.281707428391744 6.323917080485445 L 22.281707428391744 10.116417168799346 L 20.339208505725853 10.116417168799346 C 18.422916752497347 10.116417168799346 17.826291610813133 11.305041117997579 17.826291610813133 12.524499474049994 L 17.826291610813133 15.416666786601565 L 22.10133447125754 15.416666786601565 L 21.418374900595335 19.87208401721867 L 17.826291610813133 19.87208401721867 L 17.826291610813133 30.646791458129883 C 25.195458752886452 29.490541449134767 30.83333396911621 23.109583160256246 30.83333396911621 15.416666786601565 C 30.83333396911621 6.9020420849830035 23.93129179550806 0 15.416666984558105 0 Z" fill="rgb(255,255,255)"/>
        </svg>